<?xml version="1.0" encoding="utf-8"?>
<!-- Generator: Adobe Illustrator 24.1.2, SVG Export Plug-In . SVG Version: 6.00 Build 0)  -->
<svg version="1.1" id="Capa_1" xmlns="http://www.w3.org/2000/svg" xmlns:xlink="http://www.w3.org/1999/xlink" x="0px" y="0px"
	 viewBox="0 0 97.4 97.4" style="enable-background:new 0 0 97.4 97.4;" xml:space="preserve">
<style type="text/css">
	.st0{fill:#FFFFFF;}
</style>
<g>
	<path class="st0" d="M12.5,0h72.4c6.9,0,12.5,5.1,12.5,12.5v72.4c0,7.4-5.6,12.5-12.5,12.5H12.5C5.6,97.4,0,92.3,0,84.9V12.5
		C0,5.1,5.6,0,12.5,0L12.5,0z M70.9,10.8c-2.4,0-4.4,2-4.4,4.4v10.5c0,2.4,2,4.4,4.4,4.4h11c2.4,0,4.4-2,4.4-4.4V15.2
		c0-2.4-2-4.4-4.4-4.4H70.9L70.9,10.8z M86.4,41.2h-8.6c0.8,2.6,1.3,5.5,1.3,8.4c0,16.2-13.6,29.3-30.3,29.3
		c-16.7,0-30.3-13.1-30.3-29.3c0-2.9,0.4-5.7,1.3-8.4h-8.9v41.1c0,2.1,1.7,3.9,3.9,3.9h67.8c2.1,0,3.9-1.7,3.9-3.9L86.4,41.2
		L86.4,41.2z M48.8,29.5c-10.8,0-19.6,8.5-19.6,19s8.8,19,19.6,19c10.8,0,19.6-8.5,19.6-19S59.6,29.5,48.8,29.5z"/>
</g>
</svg>
