<?xml version="1.0" encoding="utf-8"?>
<!-- Generator: Adobe Illustrator 24.1.2, SVG Export Plug-In . SVG Version: 6.00 Build 0)  -->
<svg version="1.1" id="Ebene_1" xmlns="http://www.w3.org/2000/svg" xmlns:xlink="http://www.w3.org/1999/xlink" x="0px" y="0px"
	 viewBox="0 0 251.6 386.2" style="enable-background:new 0 0 251.6 386.2;" xml:space="preserve">
<style type="text/css">
	.st0{fill:#171830;}
	.st1{fill:#E8F1F8;}
	.st2{fill:none;stroke:#1D345E;stroke-width:0.5;stroke-miterlimit:10;}
	.st3{fill:#1D345E;}
	.st4{fill:#EC6D50;}
	.st5{fill:#3B88C8;}
	.st6{fill:#9BC3E3;}
	.st7{fill:none;stroke:#E8F1F8;stroke-width:0.5;stroke-miterlimit:10;}
	.st8{fill:#F3F3F3;}
	.st9{fill:#4C388C;}
	.st10{fill:#D6D1EA;}
	.st11{fill:#43762E;}
	.st12{fill:#315426;}
	.st13{fill:#628A37;}
	.st14{fill:#E9ECF7;}
	.st15{fill:#8E73B2;}
	.st16{fill:#4D6442;}
	.st17{fill:#93B53C;}
	.st18{fill:none;stroke:#EC6D50;stroke-width:2;stroke-linecap:round;stroke-miterlimit:10;}
	.st19{fill:none;stroke:#F3F3F3;stroke-miterlimit:10;}
	.st20{fill:#EC6D50;stroke:#F3F3F3;stroke-miterlimit:10;}
	.st21{fill:none;stroke:#EC6D50;stroke-miterlimit:10;}
	.st22{fill:#4F3C90;}
	.st23{fill:#4C388D;}
	.st24{fill:#F37021;}
	.st25{fill:none;stroke:#EC6D50;stroke-width:0.5;stroke-miterlimit:10;}
	.st26{fill:none;stroke:#8E73B2;stroke-width:2;stroke-linecap:round;stroke-miterlimit:10;}
	.st27{fill:none;stroke:#4F3C90;stroke-miterlimit:10;}
	.st28{fill:#4CCD8C;}
</style>
<g>
	<g>
		<g>
			<path class="st4" d="M109.6,306.3c-0.2-1.7-1.3-2.1-2.6-1.4c-2.7,1.3-5.4,0.7-8.1,0.3c-3-0.4-3.8-0.1-5,2.8
				c3.1,2,12.5,2.4,19.2,0.9C112.4,305.7,112.4,305.7,109.6,306.3z"/>
			<path class="st4" d="M127,294c-2.4-1.9-5.1-3.3-7.7-4.9c-0.2-0.1-0.4-0.1-0.6-0.2c2.2,2,4.4,3.9,6.6,5.9c1.4,1.3,2.2,2.8,1.1,4.8
				c-0.2,0.4-0.3,0.9-0.4,1.3c-1.1,6.4-5.8,8.7-11.4,10.1c-1.3,0.3-2.6,0.5-4.2,0.9c0.2,1.5,0.3,3,0.5,4.5c-0.1,0-0.2,0.1-0.4,0.1
				c-0.2-0.2-0.4-0.4-0.8-1c0.1,2.3,0.2,4.3,0.3,6.4c-0.7-0.3-1.3-0.6-2.3-1c-0.5,0.8-1.1,1.7-1.8,2.9c-0.4-0.9-0.6-1.4-0.9-2
				c-0.5,0.3-1,0.6-1.5,0.9c-0.3-0.3-0.7-0.6-1.1-1c-0.8,0.9-1.6,1.8-2.8,3c0.3-1.1,0.4-1.7,0.6-2.3c-0.4-0.3-0.9-0.6-1.4-0.9
				c-0.2,0.2-0.5,0.6-0.9,1c-0.3-0.7-0.5-1.3-0.6-1.7c-0.9-0.2-1.7-0.4-2.3-0.6c0.6-1.4,1.2-2.6,1.9-4.3c-0.8,0.3-1,0.4-1.5,0.6
				c-0.2-1.5-0.3-2.9-0.5-4.6c0.1,0.1,0-0.1-0.1-0.1c-2.7-0.2-4-1.8-4.9-4.1c-1.1-2.5-2.5-4.9-4.1-7.3c0,3.5,0,7.1-0.1,10.6
				c0,0.7,0.7,1.8-0.9,1.8c-0.1,0-0.2,0.2-0.2,0.2c0.9,2.3-1.8,3.8-1.4,6.1c0.4,2.2,0.6,4.4,1,6.6c0.1,0.4,0.3,0.8,0.3,1.2
				c-0.1,2.1,1.5,3.5,2.7,4.6c1,0.9,2.2,2.2,3.8,2.4c1.7,0.3,3.5,0.4,5.2,0.6c0,0.1-0.1,0.1-0.1,0.2c0.6,0.2,1.2,0.4,1.8,0.6
				c0.5,0.2,1,0.4,1.5,0.5c0.6,0.1,1.2,0,1.7,0.2c1.1,0.3,2.2,0.7,3.5,1.1c0.6-0.7,1.4-1.5,2.3-2.5c0.1,0.4,0.2,0.7,0.4,1.2
				c1.5-1.4,3-2.8,4.8-4.5c-0.1,0.7-0.2,1.1-0.3,1.5c1.4,0.3,2.2-2.6,4-0.7c0.5-0.8,1.1-1.6,1.7-2.6c0.2,0.8,0.3,1.3,0.6,2.2
				c0.8-2.1,1.5-3.8,2.2-5.7c0.4,0.4,0.7,0.6,1.1,0.9c0.1-0.1,0.2-0.1,0.3-0.2c1.2-3.1,2.4-6.1,3.4-8.6c0.7-0.5,1.1-0.6,1.1-0.9
				c0.5-2.1,0.8-4.2,1.3-6.3c0.1-0.6-0.3-1.8,1.1-1.6c0.1,0,0.3-0.5,0.3-0.8c0.3-3.5,0.8-6.9,0.6-10.4
				C129.5,296.8,128.2,295,127,294z"/>
			<path class="st4" d="M131.1,247.5c-4.7-1.9-8.4,0-12.2,2.6c6.2-0.6,12.3,0.2,18.3,1.9C137.1,250,136.3,249.6,131.1,247.5z"/>
			<path class="st4" d="M92.8,299.6c0.6-3.3,0.7-3.4,4-2.9c1.6,0.2,3.1-0.1,4.2-1.6c1.2,1.8,2.8,0.6,4.2,0.8c0.6,0,1.2,0.4,1.8,0.2
				c2.6-0.6,4.8,1.7,7.6,1.3c0.1,0.3,0.4,0.8,0.6,1.3c2.2,0,4.4,0.1,6.5,0.1c1.1,0,2.1-1.4,1.7-2.4c-0.4-0.9-0.7-2.1-2.3-1.6
				c-1,0.3-2.1-0.1-2.8-0.2c-1.3-1-2.2-1.7-3-2.4c-0.2-0.1-0.4-0.3-0.4-0.5c-0.5-2.1-1.7-1.7-3.2-1.1c-0.4,0.1-1,0.1-1.2-0.1
				c-1.4-1.7-2.9-1.4-4.3,0.1c-0.4-0.5-0.8-0.9-1.1-1.3c-1-1.4-2.1-1.3-3.5-0.6c-0.6,0.3-1.2,0.4-2.1,0.4c-2.8,0-5.9-1.2-8.5,0.9
				c-0.6,0.5-1.1,1.5-1.1,2.3c0.1,2.8,0.8,5.5,2.6,7.7C92.7,299.8,92.8,299.7,92.8,299.6z"/>
			<path class="st4" d="M142.4,135.7c-1.2,0.9-2.3,1.7-3.5,2.5c-7.9,5.3-15.8,10.4-24.4,12.9c-12.3,3.5-22.8,1.9-32.2-3.3
				c-1.8-1-3.4-2.2-4.9-3.6C31.9,163.3,0,208.1,0,260.4c0,69.5,56.3,125.8,125.8,125.8s125.8-56.3,125.8-125.8
				C251.6,196.6,204,143.9,142.4,135.7z M183.3,285.2c-0.3,0.4-0.3,1.2-0.1,1.8c0.3,1.5-0.2,2.7-1,3.9c-1.1,1.5-2.6,3.1-2.8,4.9
				c-0.5,3.6-2.9,4.8-5.7,5.6c-1.3,0.4-2.7,0.1-4.1,0.2c0-0.2-0.1-0.5-0.1-0.7c0.4-0.1,0.9-0.2,1.3-0.4c1.9-0.7,3.8-1.3,5.6-2.2
				c1.4-0.7,2.2-1.8,1.6-3.6c-0.2-0.5,0-1.4,0.4-1.7c3-2.4,3.9-5.5,4.1-9.3c0.3-4.6-1.2-8.5-2.7-12.5c-0.2-0.6-1-1.1-1.6-1.4
				c-0.7-0.5-1.5-0.7-2.2-1.2c-0.1-0.1,0.2-1,0.3-1c0.9,0.1,1.8,0.1,2.6,0.4c2.8,1.2,4.1,3.6,4.9,6.4
				C184.6,278,185.9,281.6,183.3,285.2z M172.6,281.9c-0.6-1.7-0.1-3,0.8-4.4c4.7,2.2,4,6.8,5.3,10.8c-0.7,0-1.3,0-1.9-0.1
				c-3.6-0.7-3.6-0.7-4.6,2.8c0,0-0.1,0.1-0.2,0.2c-1.5-1.6-1.4-3.2,0.2-4.6c0.4-0.4,1-0.9,1-1.4C173.1,284.2,173,282.9,172.6,281.9
				z M188.2,233.3c-1,7.5-2.3,14.9-3.7,22.4c-0.6,3.4-1.6,6.8-2.5,10.3c-4.1-2-7.4-1.7-9.1,3.2c-0.6,1.9-1.4,3.7-1.9,5.6
				c-1.9,7.8-3.6,15.6-5.4,23.5c0,0.1-0.2,0.3-0.3,0.5c-0.4-0.3-0.7-0.5-1.1-0.8c-0.8,1.6-1.4,3-2.1,4.4c-0.1,0-0.2,0-0.3-0.1
				c-0.1-1-0.2-1.9-0.3-2.9c-0.1,0-0.2,0-0.3,0c-0.8,3-1.5,6-2.3,9c-0.3-0.4-0.4-0.6-0.7-1c-0.7,2.7-1.4,5.1-2.1,7.8
				c-0.3-0.8-0.5-1.4-0.8-2.4c-0.9,2.4-1.7,4.4-2.5,6.5c-0.5-0.5-0.8-0.8-1.3-1.3c-0.8,2.6-1.6,5-2.4,7.8c-0.4-1-0.6-1.6-0.9-2.5
				c-1.1,2.6-2,4.9-3,7.2c-0.6-0.4-1.1-0.6-1.7-1c-0.5,1.8-1,3.5-1.7,5.7c-0.3-1-0.5-1.5-0.7-2.4c-1.3,2.6-2.5,4.9-3.8,7.3
				c-0.2-0.6-0.3-1-0.5-1.5c-1.6,1.8-3.2,3.6-5,5.7c0.2-0.9,0.2-1.4,0.3-1.9c-2.2,0.6-4.3,1.1-6.5,1.7c0-0.5-0.1-0.8-0.1-1.1
				c-2.1,0.9-3.3,2.9-5.9,3.3c-2.2,0.3-3.9,2.4-6.6,2c-1.2-0.2-2.6,0.6-4,1c0.1-0.5,0.2-0.9,0.2-1.4c-1.9,0.4-3.6,2.4-4.8,0.3
				c-1,0.2-1.7,0.5-2.4,0.4c-2-0.1-3.9-0.4-5.9-0.5c-0.3,0-0.6,0.5-0.9,0.7c-2-0.5-3.3-2.7-5.9-2.3c-0.9-0.7-2.1-1.5-3.2-2.4
				c-0.9-0.8-1.6-1.8-2.5-2.6c-0.8-0.7-0.2-2.1-1.8-2.7c-0.9-0.4-1.3-2.5-1.7-3.9c-0.5-1.6-0.2-3.2-1.1-4.9
				c-0.9-1.6-0.4-3.8-1.3-5.7c-0.8-1.6-0.8-3.7-0.8-5.6c-0.1-6.1-2.2-11.8-3.8-17.6c-0.6-2.1-0.4-3.7,0.7-5.3
				c2.1,1.9,4.1,3.7,6.2,5.6c0.1-0.8-0.2-1.3-0.3-1.9c-0.5-3.6-1.5-7.3-1.2-10.8c0.6-5.4,2.8-10.4,6.1-14.8c1.4-1.8,3.5-3.3,3.2-6.1
				c0.5,1,0.6,2.1,1.1,2.9c1.2,2.2,0.4,3.8-1,5.4c-1,1.1-1.7,2.4-2.6,3.5c0.2,0.2,0.3,0.4,0.5,0.6c0.7-0.4,1.6-0.8,2.2-1.4
				c0.7-0.5,1-1.5,1.8-1.9c1-0.6,2.3-0.7,3.3-1.3c1.4-0.7,1.3-2.5-0.1-3.4c-0.5-0.3-1.2-0.5-1.4-1c-0.2-0.4-0.1-1.5,0-1.5
				c1.2-0.3,2.5-0.8,3.6-0.6c0.6,0.1,0.8,1.7,1.3,2.6c0.3,0.6,0.7,1.4,1.3,1.7c3.3,1.9,6.3,0.5,9.3-1c-0.4-0.4-0.9-0.7-1.4-0.8
				c-0.7-0.2-1.5-0.2-2.2-0.5c-0.4-0.1-1-0.5-1.1-0.8c-0.1-0.4,0.3-1,0.7-1.3c0.4-0.3,1.1-0.4,1.6-0.4c1.5,0.1,3,0.3,4.5,0.5
				c2.1,0.2,2.5,0.8,1.5,2.7c-0.7,1.2-0.2,1.9,0.9,2c1.2,0.1,2.4-0.3,3.7-0.6c-0.1,0.4-0.2,1.1-0.4,1.7c-0.8,2-0.2,3.2,2,3.7
				c0.7,0.2,1.6,0.3,2.1,0.7c1.5,1.1,2.8,2.4,4.5,3.9c-0.4-0.9-0.6-1.5-1-2c-1.8-2.9-3.6-5.8-5.4-8.7c-0.6-1-1.1-1.8-0.8-3
				c0.7-2.6-0.1-4.9-1.9-6.8c-0.8-0.8-1.4-1.7-2.1-2.6c3.4,1.9,5.6,4.8,7,8.2c1.3,3.2,3.5,5.7,5.6,8.3c2.7,3.3,5.3,6.7,7.7,10.2
				c2.1,3,3.2,6.4,2.1,10.2c-0.7,2.7-0.7,2.7,1.7,4.5c0.2-0.9,0.4-1.8,0.7-2.7c0.5,0.1,1,0.1,1.5,0.2c0.3-1.1,0.6-2.2,0.8-2.7
				c1.6-0.3,2.9-0.5,4.2-0.7c0,0.1-0.1,0.2-0.1,0.3c2.1,0.3,4.2,0.6,6.3,0.9c0.2-0.5,0.3-0.9,0.5-1.4c0.7,0.5,1.3,0.9,1.7,1.2
				c0.9-1.1,1.8-2.2,2.8-3.4c-0.1-0.5-0.2-1.4-0.3-1.8c0.8-1.3,1.4-2.3,2-3.3c0.5,0.2,1.2,0.5,1.9,0.8c0.1-0.8,0.1-1.4,0.2-2.2
				c0.7,0.7,1.3,1.3,2.1,2.1c0.5-1.3,1.1-2.2,1.3-3.1c0.8-3.5,1.4-7,2.1-10.5c0-0.2,0-0.4,0-0.6c-0.2-1-0.5-1.9-0.5-2.9
				c-0.1-6.5,0.1-13-0.2-19.4c-0.1-2.2-1.1-4.6-2.3-6.6c-2.2-3.8-4.7-7.5-7.4-10.9c-1.6-2.1-1.8-4.2-2-6.6c0-0.4,0-0.8,0-1.2
				c0-2.2,0.2-4.4-0.1-6.6c-0.5-5-3.9-7.5-8-9.5c-4.5-2.2-9.4-2.8-14.2-3.8c-0.5-0.1-1-0.5-1.5-0.8c-1.7-0.1-3.5,0.4-5.4,0.4
				c-1.8-0.1-3.6-0.8-5.3-1.2c-0.3-0.1-0.7,0-1,0.2c-3.4,2.6-7.9,1.9-11.6,3.6c-0.5,0.3-1.4,0-2-0.1c-1.9-0.4-3.5-0.2-5.1,1.3
				c-3.1,3-6.5,5.6-9.7,8.5c-2.9,2.6-5,5.8-5.9,9.6c-1,4-2.2,8-3.3,12.1c-0.3,1-0.5,2.1-0.7,3.1c1.6-2.7,4-4.4,6.7-5.8
				c2.7-1.4,5.5-2.7,8.3-4c2.1-0.9,2.1-0.9,3.1,1.2c0.1,0.3,0.3,0.5,0.4,0.8c1.1,2.7,0.8,3.2-2.1,3.3c-5.6,0.3-10.4,2.2-13.7,6.9
				c-1.3,1.8-2.7,3.6-3.9,5.2c-0.2-1.5-0.1-3.3-0.6-4.9c-1-3.2-0.5-6.2,0.6-9.2c0.2-0.6,0.4-1.3,0.7-2.1c-0.4,0-0.8-0.1-1.2-0.1
				c0.1-0.6,0.2-1.1,0.4-1.6c0.7-1.9,0.4-3.7-0.6-5.4c-0.9-1.5-1.5-3.2-2.3-4.9c1.9-0.1,2.8-1.2,3.5-4c-0.5-0.4-1-0.9-1.6-1.2
				c-3-1.4-4.3-4-5.1-7c-0.6-2.3-1.4-4.6-2.1-6.9c0.1-0.1,0.3-0.1,0.4-0.2c0.7,1.1,1.6,2.2,2,3.4c0.5,1.5,1.4,1.7,2.5,1.2
				c3-1.3,5.9-2.7,9.2-4.2c-1.3-2.1-2.3-4-3.4-5.7c-1.7-2.6-1.5-5.3-0.2-7.9c0.3-0.5,1-0.9,1.5-1.3c0.3,0.6,0.7,1.1,0.8,1.7
				c0.5,2.7,1.5,3.7,4.3,3.8c-2-3.9,1.5-5.8,3.1-8c-2.1-3.2-0.4-5.9,0.1-8.9c1.7,1.6,3.1,3,4.6,4.3c1.7,1.4,2.6,1.2,3.3-1
				c0.5-1.6,0.8-3.4,0.8-5.1c0-2.5-1.3-3.3-3.7-2.5c-1.4,0.5-2.8,1.1-4.6,1.8c2.4-2.2,4.6-3.3,7.4-3.4c3,0,4.4,2.3,6,4.8
				c0-1.3,0-2.1,0.1-3c3.4,2.4,8.4,4.3,10.8,4.3c-0.1-1.2-0.2-2.4-0.4-4.1c1.3,1.3,2.4,2.3,3.4,3.3c1.9,2.1,2.9,2.3,5,0.4
				c1.3-1.2,2.5-2.6,3.7-3.9c1.2,0.5,2.3,0.9,3.4,1.4c1.2,0.5,2.3,1.1,3.5,1.4c2,0.5,4.1,1,6.1,1c3.4,0,4.2-1.6,2.7-4.6
				c-0.2-0.4-0.4-0.9-0.6-1.4c3.4,1.8,6.6,3.6,9.9,5.1c3.6,1.7,7.2,3.5,11.4,3.5c2.9,0,4-1.3,3.6-4.2c0-0.3,0-0.7-0.1-1.4
				c2.6,3.7,4.8,7.1,7.3,10.3c2,2.5,4.1,4.8,6.5,7c1.9,1.7,3,1.3,4.3-0.9c0.2-0.3,0.3-0.6,0.5-0.9c0.4-0.5,0.8-1,1.2-1.6
				c0.4,0.6,0.9,1.1,1.3,1.7c0.1,0.2,0.1,0.4,0.2,0.7c1.6,6.1,2,12.3,1.6,18.6c-0.1,2-0.5,4.2-1.2,6.1c-0.4,1.1-0.5,1.8-0.2,2.9
				C188,223.4,188.8,228.3,188.2,233.3z M92.6,224.8c6.1-1.3,12.1-2.6,18.3-3.2c5.6-0.6,11.4-0.7,17-0.2c12,1.1,20.3,12.9,22.3,20.7
				c-2.2-3.1-4.7-7.1-7.7-10.7c-4.3-5-9.8-8-16.4-8.3c-10.7-0.5-21.3,0.2-31.8,2.4c-2.4,0.5-4.5,1.9-6.7,3c-0.5,0.2-0.9,0.8-1.4,1.2
				C87.6,227.1,89.8,225.4,92.6,224.8z M90.3,219.8c2-0.9,3.9-1.9,6-2.4c8.9-2.2,18-3.1,27.2-2.8c5.5,0.1,10.9,0.8,15.5,4.2
				c1.7,1.3,3.2,2.8,5.1,4.4c-0.6,0.1-0.7,0.1-0.7,0.1c-0.4-0.4-0.9-0.7-1.3-1.1c-3.6-3.2-7.8-5.5-12.7-5.9
				c-3.7-0.3-7.5-0.5-11.3-0.3C108.8,216.3,99.4,216.7,90.3,219.8z M134.5,255.6c-3.7,3.8-8.7,4.8-13,2.8c-3.3-1.6-6.5-3.5-8.8-6.6
				c-0.4-0.5-0.9-1.1-1.5-1.4c-1.2-0.6-1.1-1.4-0.9-2.5c0.6-3.5,2.7-5.6,6.1-6.5c2.2-0.6,3.7-0.5,4.2,0.7c0.9,1.9-0.8,2.7-1.8,3.6
				c-1,0.9-2.2,1.7-3.2,2.6c0.1,0.2,0.2,0.4,0.3,0.5c1.2-0.6,2.5-1,3.7-1.7c4.9-2.9,9.9-2.7,14.9-0.3c2,1,3.5,2.5,4.3,4.6
				c0.4,1.2,1,2,2.2,2.5c3.3,1.4,4.1,4.7,5.4,7.5c-0.6-0.6-1.1-1.2-1.5-1.9c-1.7-2.4-3.8-4.5-6.8-5.1c-4.1-0.9-8.2-1.7-12.4-2.2
				c-2.5-0.3-5.1-0.2-8-0.3C122.4,258.2,128.1,258,134.5,255.6z M116.6,236.2c0.2-1.2,2.4-3.6,3.7-3.9c4.8-1,9.6-1.3,14.4,0.5
				c5.1,2,8.4,5.5,9.9,10.7c-0.4-0.3-0.9-0.6-1.2-0.9c-2.8-3.5-6.6-4.9-10.8-5.7c-0.7-0.1-1.5-0.4-2.2-0.5c-0.8-0.1-1.6-0.1-2.3,0
				c-3,0.6-5.9,1.2-8.9,1.8C117.5,238.6,116.4,237.7,116.6,236.2z M101.7,244.7c0.3,0.1,0.5,0.2,0.8,0.3c-0.3,1.1-0.4,2.3-1,3.2
				c-1.5,2.4-3.3,4.6-5,6.9c-3.5,4.8-10.4,6.7-16.4,4.1c3.2-0.3,6.1-0.4,8.8-1c2.9-0.6,6-1.3,7.2-5.1c-5.9,0.2-11.7-0.5-17,2.8
				c1.2-1.8,2.5-3.5,3.9-5.2c3.1-3.7,7.8-4.8,12.2-2.7c1.2,0.6,2.3,1.4,3.5,2.1C99.7,248.3,100.7,246.5,101.7,244.7z"/>
			<path class="st4" d="M90.6,248.5c-3.2,0.1-6.3,1.8-7.7,4.5c4.5-1.3,8.7-2.4,13.5-1.3C94.9,249,92.9,248.4,90.6,248.5z"/>
		</g>
		<path class="st28" d="M201.9,29.9c-2.3-0.3-3.8-1.6-4.6-4c-1.4-4-3.3-7.8-5.9-10.9c-1.4-1.7-3.2-2.9-5.9-1.8
			c-4.9,2-9.4,5.3-13,9.8c-3.6,4.6-6.5,9.6-9.6,14.4c-2,3.2-4.3,6.2-6.6,9.2c-0.7,1-1.7,1.8-2.7,1.3c-1.1-0.5-1.3-1.5-0.9-2.8
			c0.3-1.1,0.8-2.1,1.5-3.2c1-1.7,2-3.5,3.1-5.2c5.1-8.2,10.7-16,17.7-22.7c2.8-2.6,5.8-4.8,9.3-6.7c-1.6-0.5-2.9-0.3-4.3,0
			c-2,0.4-3.8,0.2-5.3-0.9c-1.6-1.2-3.2-2.2-4.9-3.2c-4.5-2.7-9.3-1.3-13.4,4.2c-7.4,9.9-13.4,20.5-17.2,31.8
			c-1.5,4.6-2.8,9.3-4.3,13.9c-0.5,1.6-1.1,3.3-2.2,4.8c-0.7,1-1.6,1.5-2.6,1.4c-1-0.1-1.5-0.7-1.5-1.8c0-0.9,0.1-1.7,0.3-2.6
			c2.8-11.7,5.7-23.3,10.9-34.8c3.4-7.4,7.3-14.5,14-19.8c0-0.1,0-0.3,0-0.4c-5.3,1.8-10.6,2.9-15.8,4.1c-2.6,0.6-5.2,1.7-7.7,2.8
			c-2.9,1.2-5,3.2-6.5,6.2c-4.4,8.9-7.7,17.8-8.4,27c-0.3,4.3-0.5,8.6-0.8,12.9c-0.2,3.1,0,6.1-1,9.4c-0.4,1.3-0.9,2.7-2.3,3.2
			c-1.5,0.5-2.7,0.1-3.5-0.9c-0.7-0.8-1-1.8-1-3c0-1.4,0-2.7,0.4-4.1c2.6-9.2,3.9-18.4,6.4-27.7c1.9-7.1,3.9-14.3,8.1-21
			c0.7-1.1,1.5-2.2,2.4-3.5c-0.4,0-0.6,0-0.7,0.1c-0.5,0.2-0.9,0.4-1.4,0.7c-8.1,4-15.9,9.2-23.7,14.3c-3.7,2.4-5.3,5.4-6.4,9
			c-0.5,1.8-1,3.6-1.3,5.3c-1.7,9.4-1.8,18.4-1.5,27.4c0.2,5.5,1.1,10.7,1.4,16.1c0.1,2.4-1,3.5-3.3,3.4c-0.9-0.1-1.7-0.5-2.2-1.1
			c-1.1-1.1-1.8-2.5-2.3-4.1c-1.2-3.8-2.1-7.8-2.7-12c-1.4-10.2-1.6-20.6,2.3-31.8c0.1-0.3,0.3-0.6,0-0.9c-0.8,0.4-1.4,1.1-2,1.7
			c-8.3,8.4-15.7,17.5-22.8,27.1c-7.3,9.9-11.1,20.3-11.7,31.1C45,102,48.6,109.7,57.2,113c7.2,2.8,14.8,0,22.5-5.2
			c2.8-1.9,5.7-3.7,8.7-4.6c0.6-0.2,1.3-0.6,1.9,0.1c-0.7,0.6-1.3,1.2-2,1.8c-6.1,5.1-12.4,10-18.9,14.5c-9.4,6.5-19,12.5-29.2,16.1
			c-3.8,1.3-3.7,1.3-2.8,4.7c0.4,1.3,1,1.4,2.3,0.7c2.4-1.4,4.9-2.7,7.3-4.1c8-4.7,16.1-9.1,23.5-15.4c6.7-5.9,13.9-11,21.1-16
			c0.4-0.3,0.8-0.8,1.4-0.5c0,1-0.8,1.7-1.4,2.4c-1.4,1.6-2.9,3-4.3,4.6c-4.7,4.9-9.2,9.9-12.4,16c-3.2,6.2-3,10.6,0.6,14.4
			c0.6,0.7,1.3,1.3,2,1.9c1.5,1.4,3.2,2.6,4.9,3.6c9.3,5.3,19.9,6.8,32.2,3.3c8.6-2.5,16.5-7.6,24.4-12.9c1.2-0.8,2.4-1.7,3.5-2.5
			c2.9-2.2,5.6-4.6,8-7.4c0.5-0.6,1.2-1.2,1.1-1.9c-0.1-0.8-1-0.4-1.6-0.4c-3.9,0-7.7-0.3-11.4-0.8c-7.3-1.1-14-3.3-19.1-8.3
			c-2.2-2.2-4-4.7-4.3-8.3c-0.1-1.1,0-2.4,1.2-3.4c1.1-0.9,2.1-0.7,3-0.4c1.5,0.6,2.7,1.4,4,2.3c4.1,3,7.6,6.7,12.1,9.2
			c5.7,3.3,11.9,5.5,19.6,4.1c3.7-0.7,6.9-2.4,9.7-5.9c4.6-5.7,9-11.4,13.1-17.4c1.2-1.8,2.6-3.5,3.5-5.7c-0.7,0.3-1.1,0.5-1.5,0.8
			c-8.9,5.1-17.7,7.2-26.4,6.4c-5.9-0.5-11.4-2-17.2-2.7c-1-0.1-1.9-0.6-2.7-1c-0.5-0.3-1.2-0.6-1-1.6c0.2-1,1-1.5,1.8-1.8
			c3.4-1.6,6.6-2.2,9.7-1.5c9.4,2.2,19.4,2,29.8,0c4-0.8,7.7-2.9,11-6.3c4.1-4.2,5.9-9.3,8.4-14.2c0.6-1.1,0-1.4-0.9-1.1
			c-1.2,0.4-2.4,1.1-3.5,1.8c-9.5,6.3-19.1,9-28.6,8.3c-3.7-0.2-7.5-0.6-10.7-2c-0.6-0.3-1.3-0.7-1-1.7c0.3-1.1,1.1-1.7,2-2.1
			c1-0.4,1.9-0.5,2.8-0.4c1.5,0.2,3,0.4,4.5,0.7c10.3,2.5,21,0.5,32.1-6.5c2.2-1.4,3.8-3.1,4.8-5.5c1.7-4,2.5-7.8,2.3-11.7
			c-0.1-2.5-0.3-5.1-0.2-7.7c0.1-2.9,0.9-5.5,3.5-7.8c0.6-0.5,1.1-1.3,1.7-1.9C203.2,30.9,203.5,30.1,201.9,29.9z M189.2,38.7
			c-14.3,8.7-28.7,17.2-42.7,26.7c-5.7,3.9-11.4,7.9-17,11.9c-0.9,0.6-2.3,1.3-2.3,2.4c-0.1,1.1,1.4,0.7,2.2,0.9
			c5.4,1.2,10.9,2.3,16.3,3.5c0.3,0.1,0.5,0.2,0.6,0.6c-2.5-0.3-5.1-0.6-7.6-0.9c-4.4-0.6-8.8-1.2-13.2-1.8
			c-1.4-0.2-2.8,0.4-4.2,1.3c-3,2-5.9,4.1-8.8,6.3c-1.9,1.5-2,1.8-0.2,2.5c6.7,2.7,13.4,5.3,20.1,8c0.1,0,0.2,0.1,0.1,0.4
			c-2.2-0.7-4.3-1.4-6.5-2c-5.3-1.6-10.5-3.4-16-4.6c-1.7-0.4-3.3-0.1-5,1.2c-1.7,1.3-3.4,2.5-5.1,3.7c-1.1,0.8-1.3,1.5-1.1,2.6
			c1.5,8.3,4.8,15.4,9.8,21.3c0.5,0.6,1,1.3,1.5,2c-5.9-5.2-8.8-12.9-12.4-20.1c-1.4,11.6-2,22.8-0.1,33.3c0.7,3.9,1.8,7.8,3.3,11.5
			c-1.4-0.8-2-2-2.6-3.1c-1.3-2.5-2.3-5.1-3.1-7.8c-2.6-9-2.7-19-0.7-29.8c0.3-1.7,0.7-3.4,1.2-5.1c0.6-1.9,0.2-3.2-0.8-4.2
			c-1-1.1-2.2-2-3.6-2.6c-7.2-3.3-13.4-7.8-17.3-14.9c-2.9-5.2-3.9-11.3-2.8-18.3c0.5,2.3,1,4.7,1.5,7c1.9,10.6,7.6,17.7,16.2,22
			c1.8,0.9,3.6,1.8,5.4,2.7c0.8,0.4,1.4,0.9,1.9,1.7c0.2,0,0.4,0,0.6-0.1c1.4-3.7,1.4-7.2,1.7-10.7c1.3-15.1,1.4-30,2.8-45.1
			c0.3-3.1,0.4-6.1,1.4-9.2c0-0.1,0-0.2,0-0.3c0.1,0.1,0.2,0.2,0.3,0.3c0,12.5-1,25.1-1.6,37.7c-0.4,8.7-1,17.4-1.5,26.1
			c0,0.2,0.1,0.4,0.1,0.8c5.2-3.1,10.2-6.3,14.9-10.4c1.4-1.2,2-2.8,2.5-4.4c1.9-6.2,2.8-12.3,3.8-18.5c1.9-11.8,4.2-23.7,7.8-35.6
			c0.2-0.7,0.5-1.4,0.8-2.3c0.4,0.7,0.1,1.3,0,1.9c-3.5,15.5-6.9,31-9.6,46.5c-0.3,1.8-0.6,3.7-0.7,5.5c-0.2,2.2,0.5,2.6,2.5,1.4
			c3.4-2,6.8-4.3,10.2-6.4c0.6-0.4,1.1-0.8,1.7-1.2c2.5-1.8,4.1-3.9,4.7-7c1.3-6.9,3-13.7,5.5-20.6c0.7-1.9,1.4-3.8,2.5-5.8
			c0.7,0.6,0.1,1.4-0.1,2c-2.4,6.7-4.7,13.4-6.1,20.2c-0.3,1.3-0.4,2.7-0.5,4c-0.1,1.6,0.5,1.9,1.9,0.9c3.8-2.7,7.7-5.3,11.6-8
			c3.3-2.3,6.5-4.7,9.8-7c1.1-0.8,1.9-1.7,2.6-2.9c3.5-5.8,6.5-11.9,10.1-17.6c1.4-2.2,2.7-4.4,4.9-6.6c-4.8,7.5-8.8,14.8-12.1,22.3
			c-0.4,1-1.4,2.4-0.9,2.9c0.6,0.6,1.7-0.8,2.5-1.3c2.3-1.3,4.5-2.7,6.7-4c1.4-0.8,2.3-1.8,2.9-3.3c1.2-3.1,2.7-6.1,4.5-9
			c0.9-1.4,2-2.8,3.8-3.9c-1.6,2.5-3,4.6-4.3,6.7c-0.7,1.2-1.3,2.4-1.9,3.6c-0.2,0.5-0.5,1.1-0.1,1.4c0.4,0.3,0.9-0.1,1.3-0.4
			c5.2-3.6,10.8-5.5,16.3-7.5c0.2-0.1,0.5-0.2,0.7,0.2C196.6,34.2,192.9,36.4,189.2,38.7z"/>
	</g>
	<path class="st16" d="M153.8,0c0.4,0,0.3,0.2,0,0.4C153.8,0.3,153.8,0.1,153.8,0z"/>
	<path class="st17" d="M102.7,31.7c0-0.1,0-0.2,0-0.3c0.1,0.1,0.2,0.2,0.3,0.3C102.9,31.6,102.8,31.6,102.7,31.7z"/>
</g>
</svg>
