<svg id="Ebene_1" data-name="Ebene 1" xmlns="http://www.w3.org/2000/svg" viewBox="0 0 251.58 386.21"><defs><style>.cls-1{fill:#f3f3f3;}.cls-2{fill:#ec6d50;}.cls-3{fill:#4d6442;}.cls-4{fill:#93b53c;}</style></defs><path class="cls-1" d="M109.56,306.34c-.17-1.65-1.27-2.07-2.56-1.42-2.68,1.34-5.39.67-8,.28-3-.43-3.78-.11-5,2.8,3.12,2,12.5,2.41,19.17.88C112.37,305.74,112.35,305.73,109.56,306.34Z"/><path class="cls-1" d="M127,294a79.35,79.35,0,0,0-7.75-4.92,2.3,2.3,0,0,0-.6-.15c2.22,2,4.42,3.9,6.58,5.88,1.43,1.31,2.17,2.83,1.11,4.77a4.06,4.06,0,0,0-.41,1.32c-1.07,6.43-5.81,8.72-11.36,10.09-1.29.32-2.6.55-4.16.87.15,1.47.3,3,.46,4.5l-.36.1-.83-1c.1,2.33.19,4.32.28,6.42l-2.27-1-1.76,2.89c-.42-.95-.63-1.44-.89-2l-1.52.94c-.35-.31-.69-.64-1.06-1l-2.77,3c.28-1.1.44-1.71.59-2.31l-1.38-.88-.93,1c-.26-.7-.47-1.28-.63-1.73l-2.3-.57c.63-1.44,1.16-2.64,1.89-4.27l-1.48.58c-.16-1.51-.3-2.95-.47-4.56.07.08,0-.07-.09-.08-2.67-.15-4-1.82-4.94-4.13a47.26,47.26,0,0,0-4-7.34c0,3.52,0,7-.06,10.58,0,.65.7,1.84-.88,1.8-.06,0-.2.19-.18.24.86,2.33-1.82,3.84-1.37,6.13s.63,4.4,1,6.61a7.46,7.46,0,0,1,.32,1.16c-.06,2.11,1.55,3.48,2.72,4.64a7.67,7.67,0,0,0,3.82,2.45c1.71.27,3.45.38,5.18.55l-.09.18,1.81.62a8.81,8.81,0,0,0,1.52.52c.57.1,1.16,0,1.71.19l3.46,1.08,2.25-2.51.4,1.16,4.78-4.46c-.12.71-.19,1.08-.25,1.47,1.42.35,2.2-2.56,4-.73l1.74-2.63.56,2.24,2.15-5.65,1.06.91c.12-.1.23-.14.27-.22l3.35-8.64c.66-.49,1.07-.64,1.12-.86.47-2.09.81-4.21,1.35-6.27.15-.58-.3-1.83,1.13-1.64a1.63,1.63,0,0,0,.27-.76,82.2,82.2,0,0,0,.64-10.36A6.78,6.78,0,0,0,127,294Z"/><path class="cls-1" d="M131.14,247.54c-4.72-1.91-8.44,0-12.16,2.63a48.84,48.84,0,0,1,18.33,2C137.12,250,136.3,249.63,131.14,247.54Z"/><path class="cls-1" d="M92.84,299.63c.58-3.35.67-3.37,4-2.92a4.06,4.06,0,0,0,4.16-1.58c1.19,1.83,2.8.64,4.21.75a7,7,0,0,0,1.77.23c2.63-.58,4.78,1.74,7.58,1.3.14.29.38.78.62,1.25,2.21,0,4.36.1,6.5.06a1.9,1.9,0,0,0,1.68-2.38c-.37-.94-.66-2.1-2.34-1.57a6.85,6.85,0,0,1-2.78-.19l-3-2.35a1.21,1.21,0,0,1-.43-.53c-.45-2.06-1.73-1.69-3.15-1.15a1.39,1.39,0,0,1-1.24-.14c-1.45-1.66-2.87-1.38-4.32,0-.42-.49-.78-.85-1.07-1.27-1-1.41-2.11-1.33-3.46-.6a4,4,0,0,1-2.06.44c-2.84,0-5.93-1.23-8.5.87a3.17,3.17,0,0,0-1.09,2.26,13.42,13.42,0,0,0,2.63,7.75C92.68,299.78,92.83,299.72,92.84,299.63Z"/><path class="cls-1" d="M142.42,135.73c-1.16.88-2.33,1.73-3.53,2.54-7.87,5.32-15.82,10.44-24.4,12.9-12.26,3.52-22.84,2-32.16-3.31a28.11,28.11,0,0,1-4.94-3.57,125.82,125.82,0,1,0,65-8.56Zm40.83,149.51a2.57,2.57,0,0,0-.14,1.83,4.68,4.68,0,0,1-1,3.87c-1.08,1.55-2.59,3.13-2.84,4.85-.52,3.57-2.87,4.84-5.73,5.63a17.42,17.42,0,0,1-4.1.19l-.09-.71c.43-.14.87-.24,1.29-.41,1.87-.71,3.78-1.33,5.57-2.21a2.7,2.7,0,0,0,1.57-3.59,1.91,1.91,0,0,1,.35-1.7c3-2.45,3.91-5.46,4.13-9.34.25-4.58-1.21-8.51-2.7-12.54-.23-.6-1-1.05-1.58-1.44s-1.52-.75-2.22-1.2a1.93,1.93,0,0,1,.31-1,8,8,0,0,1,2.64.41c2.75,1.22,4.09,3.58,4.85,6.39C184.55,278,185.88,281.63,183.25,285.24Zm-10.65-3.36a4.69,4.69,0,0,1,.77-4.36c4.71,2.18,4,6.81,5.29,10.84a14,14,0,0,1-1.9-.06c-3.64-.7-3.63-.71-4.62,2.79,0,0-.08.07-.24.19-1.51-1.58-1.41-3.24.15-4.57.44-.37,1-.93,1-1.42A9.79,9.79,0,0,0,172.6,281.88Zm15.57-48.61c-1,7.49-2.31,14.94-3.66,22.38-.62,3.45-1.63,6.83-2.48,10.28-4.08-2-7.45-1.71-9.11,3.17-.63,1.86-1.41,3.69-1.86,5.6-1.86,7.81-3.62,15.64-5.42,23.47a2.64,2.64,0,0,1-.28.49l-1.1-.76c-.76,1.58-1.44,3-2.12,4.45l-.32-.06-.3-2.88h-.26l-2.34,9-.73-1c-.74,2.69-1.41,5.13-2.13,7.77l-.81-2.38c-.92,2.4-1.7,4.42-2.5,6.52l-1.3-1.26c-.81,2.59-1.57,5-2.44,7.81-.35-1-.59-1.63-.91-2.51l-3,7.24-1.71-.95-1.68,5.65c-.31-1-.46-1.53-.7-2.36l-3.78,7.33-.46-1.52-5,5.66c.17-.93.24-1.36.34-1.91l-6.51,1.7c0-.48-.08-.78-.12-1.13-2.08.94-3.35,2.92-5.89,3.26-2.18.29-3.94,2.38-6.58,2-1.21-.17-2.56.6-4,1,.09-.49.16-.89.25-1.44-1.87.37-3.65,2.42-4.81.32a11.81,11.81,0,0,1-2.39.42c-2-.13-3.93-.41-5.89-.53-.31,0-.64.51-.89.72-2-.49-3.3-2.73-5.87-2.32-.92-.68-2.13-1.47-3.23-2.41-.91-.78-1.61-1.79-2.52-2.57s-.19-2.11-1.77-2.73c-.93-.36-1.26-2.5-1.71-3.89-.51-1.57-.16-3.24-1.1-4.89s-.37-3.8-1.35-5.71c-.8-1.6-.78-3.69-.83-5.56-.15-6.12-2.25-11.81-3.82-17.6a6,6,0,0,1,.68-5.28L80,301.5a6.65,6.65,0,0,0-.31-1.85c-.46-3.59-1.52-7.26-1.16-10.77a29.69,29.69,0,0,1,6.09-14.76c1.38-1.84,3.48-3.32,3.22-6.11.49,1,.62,2.08,1.11,2.94,1.22,2.17.41,3.79-1,5.43-1,1.1-1.72,2.36-2.57,3.55l.5.59a17.1,17.1,0,0,0,2.22-1.36c.65-.54,1.05-1.45,1.75-1.85,1-.58,2.27-.73,3.31-1.28a1.87,1.87,0,0,0-.12-3.36c-.5-.3-1.16-.51-1.42-1a2,2,0,0,1,0-1.53,7.84,7.84,0,0,1,3.63-.57c.59.14.83,1.69,1.31,2.55a4.33,4.33,0,0,0,1.27,1.74c3.27,1.85,6.27.5,9.31-1a3.25,3.25,0,0,0-1.4-.79c-.73-.19-1.5-.22-2.2-.46-.43-.14-1.05-.51-1.09-.84a1.66,1.66,0,0,1,.67-1.3,2.67,2.67,0,0,1,1.6-.39c1.5.09,3,.3,4.49.46,2.11.23,2.5.84,1.49,2.65-.65,1.19-.24,1.91.86,2a17.62,17.62,0,0,0,3.68-.57,10.35,10.35,0,0,1-.4,1.66c-.78,2-.18,3.17,2,3.7a6,6,0,0,1,2.11.68c1.46,1.13,2.81,2.41,4.45,3.86a21.13,21.13,0,0,0-1-2.05c-1.78-2.91-3.56-5.82-5.42-8.68a3.47,3.47,0,0,1-.76-3,6.91,6.91,0,0,0-1.93-6.84c-.76-.8-1.42-1.71-2.12-2.57a15.94,15.94,0,0,1,7,8.2c1.29,3.22,3.49,5.68,5.57,8.3,2.65,3.35,5.28,6.72,7.7,10.24,2.1,3,3.2,6.41,2.15,10.19-.75,2.69-.71,2.73,1.73,4.45l.67-2.75,1.52.16c.32-1.15.6-2.18.76-2.73l4.22-.69c0,.1-.06.2-.1.3l6.31.88.53-1.44,1.71,1.21,2.84-3.43c-.09-.5-.25-1.4-.32-1.82.81-1.32,1.4-2.29,2-3.35l1.86.8c.06-.75.12-1.41.18-2.18l2.11,2.13a19.33,19.33,0,0,0,1.33-3.15c.78-3.48,1.44-7,2.13-10.49a1.78,1.78,0,0,0,0-.65,19.56,19.56,0,0,1-.49-2.92c-.08-6.48.09-13-.24-19.43a15.14,15.14,0,0,0-2.27-6.6,99.56,99.56,0,0,0-7.4-10.91c-1.6-2-1.82-4.24-2-6.58,0-.4,0-.81,0-1.22,0-2.19.15-4.41-.06-6.59-.47-5-3.92-7.53-8-9.53-4.49-2.19-9.39-2.77-14.19-3.76a6.67,6.67,0,0,1-1.55-.83c-1.7-.11-3.54.43-5.36.36a32,32,0,0,1-5.34-1.2,1.37,1.37,0,0,0-1,.16c-3.42,2.62-7.89,1.9-11.6,3.64a3.69,3.69,0,0,1-2-.1,5,5,0,0,0-5.06,1.3c-3.09,3-6.48,5.6-9.65,8.48a19.43,19.43,0,0,0-6,9.62c-1,4-2.19,8-3.26,12.05-.28,1-.48,2.06-.72,3.1a15.93,15.93,0,0,1,6.69-5.78c2.72-1.4,5.49-2.71,8.28-4,2.1-.94,2.14-.87,3.08,1.2.12.26.25.52.36.79,1,2.68.77,3.16-2.08,3.3-5.61.29-10.37,2.2-13.73,6.94-1.3,1.83-2.7,3.59-3.9,5.18a23.91,23.91,0,0,0-.56-4.85,13.71,13.71,0,0,1,.57-9.16c.24-.65.45-1.3.7-2l-1.19-.1a13.89,13.89,0,0,1,.38-1.62,6,6,0,0,0-.64-5.42c-.88-1.53-1.51-3.2-2.29-4.89,1.89-.06,2.83-1.17,3.55-4A9.75,9.75,0,0,0,75.45,218c-3-1.4-4.32-4-5.12-7-.62-2.32-1.42-4.6-2.14-6.9l.43-.17a16.62,16.62,0,0,1,2,3.4c.47,1.5,1.41,1.67,2.49,1.2,3-1.29,5.94-2.72,9.16-4.22-1.27-2.14-2.27-4-3.38-5.69a7.42,7.42,0,0,1-.15-7.9c.28-.55,1-.9,1.45-1.34a7,7,0,0,1,.81,1.74c.45,2.73,1.51,3.75,4.32,3.84-2-3.94,1.45-5.78,3.13-8-2.08-3.18-.35-5.9.1-8.88,1.68,1.57,3.09,3,4.64,4.3,1.72,1.41,2.61,1.18,3.26-1a17.72,17.72,0,0,0,.78-5.1c0-2.5-1.27-3.3-3.68-2.53-1.42.45-2.78,1.06-4.64,1.78,2.37-2.17,4.65-3.33,7.38-3.37,3,0,4.39,2.27,6,4.82,0-1.3,0-2.13.06-3,3.44,2.36,8.38,4.33,10.75,4.29-.12-1.22-.25-2.44-.42-4.15,1.35,1.33,2.44,2.27,3.37,3.34,1.87,2.13,2.91,2.29,5,.39,1.31-1.19,2.46-2.56,3.69-3.85l3.42,1.38a24.22,24.22,0,0,0,3.53,1.44,25.28,25.28,0,0,0,6.1,1c3.42-.05,4.19-1.56,2.69-4.62-.21-.43-.4-.87-.63-1.39,3.39,1.76,6.57,3.56,9.87,5.09,3.61,1.68,7.23,3.5,11.35,3.54,2.89,0,4-1.3,3.65-4.16,0-.34,0-.7-.07-1.39,2.59,3.67,4.82,7.11,7.35,10.33a57.78,57.78,0,0,0,6.47,7c1.88,1.72,3.05,1.32,4.28-.88a8.93,8.93,0,0,1,.49-.92c.39-.54.81-1,1.22-1.56.42.56.87,1.12,1.26,1.7a2.07,2.07,0,0,1,.18.67,59.91,59.91,0,0,1,1.63,18.62,21.51,21.51,0,0,1-1.19,6.07,3.71,3.71,0,0,0-.16,2.88A29.67,29.67,0,0,1,188.17,233.27ZM92.63,224.8a178.13,178.13,0,0,1,18.27-3.2,89.92,89.92,0,0,1,17-.15c12,1.08,20.28,12.85,22.35,20.73-2.24-3.14-4.69-7.15-7.7-10.67a22.59,22.59,0,0,0-16.45-8.3,126.59,126.59,0,0,0-31.8,2.37c-2.35.49-4.52,1.9-6.74,2.95a7.09,7.09,0,0,0-1.37,1.16A9.71,9.71,0,0,1,92.63,224.8Zm-2.31-5a31.77,31.77,0,0,1,6-2.38,103.88,103.88,0,0,1,27.22-2.85c5.52.14,10.87.81,15.45,4.22,1.71,1.27,3.25,2.79,5.14,4.44a4.32,4.32,0,0,1-.68.07l-1.31-1.14a21.84,21.84,0,0,0-12.67-5.94,86.55,86.55,0,0,0-11.27-.32C108.8,216.3,99.38,216.73,90.32,219.82Zm44.22,35.83c-3.73,3.82-8.72,4.84-12.95,2.79-3.35-1.63-6.52-3.54-8.78-6.64a4.36,4.36,0,0,0-1.52-1.38c-1.19-.55-1.13-1.43-1-2.46a7.68,7.68,0,0,1,6.1-6.48c2.24-.59,3.69-.53,4.23.66.88,1.91-.75,2.67-1.84,3.62s-2.16,1.75-3.24,2.62l.33.52a39.63,39.63,0,0,0,3.68-1.7c4.93-2.89,9.89-2.72,14.93-.33a8.18,8.18,0,0,1,4.29,4.57,3.92,3.92,0,0,0,2.18,2.47c3.33,1.41,4.11,4.65,5.42,7.52a13.72,13.72,0,0,1-1.53-1.87c-1.72-2.41-3.8-4.47-6.76-5.13-4.09-.9-8.23-1.67-12.38-2.24-2.53-.34-5.12-.21-8-.3C122.4,258.15,128.11,258,134.54,255.65ZM116.6,236.18c.18-1.19,2.42-3.63,3.65-3.88,4.83-1,9.59-1.33,14.36.53a15.64,15.64,0,0,1,9.9,10.73,6.7,6.7,0,0,1-1.2-.95c-2.75-3.51-6.6-4.9-10.78-5.69-.74-.14-1.46-.4-2.2-.48a8.73,8.73,0,0,0-2.34,0c-3,.56-5.9,1.22-8.85,1.79C117.46,238.59,116.37,237.66,116.6,236.18Zm-14.93,8.51.78.32a13.15,13.15,0,0,1-1,3.25c-1.54,2.38-3.28,4.63-5,6.92A13.72,13.72,0,0,1,80.1,259.3a85.26,85.26,0,0,0,8.82-1c2.88-.62,6-1.27,7.25-5.13-5.89.2-11.69-.5-17,2.78,1.23-1.77,2.48-3.54,3.86-5.21a9.82,9.82,0,0,1,12.22-2.67c1.19.57,2.28,1.35,3.47,2.07Q100.2,247.44,101.67,244.69Z"/><path class="cls-1" d="M90.57,248.47c-3.17.11-6.35,1.85-7.65,4.47,4.49-1.3,8.71-2.39,13.49-1.32A5.9,5.9,0,0,0,90.57,248.47Z"/><path class="cls-2" d="M201.87,29.91A5.39,5.39,0,0,1,197.24,26a33.58,33.58,0,0,0-5.9-10.88c-1.43-1.68-3.18-2.92-5.92-1.79a31.64,31.64,0,0,0-13,9.85c-3.58,4.57-6.51,9.56-9.62,14.42-2,3.17-4.31,6.17-6.56,9.19-.72,1-1.66,1.79-2.74,1.33s-1.31-1.47-.89-2.84a15.15,15.15,0,0,1,1.45-3.15c1-1.73,2-3.46,3.12-5.17,5.12-8.15,10.72-16,17.74-22.67a44.52,44.52,0,0,1,9.3-6.73,8.54,8.54,0,0,0-4.26,0,6.46,6.46,0,0,1-5.29-.9c-1.57-1.16-3.25-2.18-4.92-3.2-4.48-2.74-9.3-1.33-13.42,4.18-7.42,9.94-13.41,20.48-17.15,31.83-1.52,4.62-2.81,9.27-4.25,13.91a15.61,15.61,0,0,1-2.23,4.8,3,3,0,0,1-2.64,1.4,1.57,1.57,0,0,1-1.51-1.84,13.21,13.21,0,0,1,.28-2.63c2.76-11.66,5.7-23.31,11-34.77,3.38-7.4,7.33-14.51,14-19.84l0-.43C148.51,1.81,143.24,2.88,138,4.15a51.34,51.34,0,0,0-7.72,2.75,12.27,12.27,0,0,0-6.49,6.22c-4.41,8.9-7.69,17.85-8.39,27-.32,4.31-.54,8.59-.77,12.88-.16,3.09,0,6.15-1,9.38-.39,1.28-.9,2.68-2.32,3.19a2.93,2.93,0,0,1-3.5-.89,4.6,4.6,0,0,1-1-3,15.45,15.45,0,0,1,.41-4.13c2.56-9.24,3.93-18.44,6.4-27.67,1.9-7.14,3.94-14.27,8.13-21,.71-1.15,1.51-2.25,2.35-3.5a3,3,0,0,0-.73.08c-.48.2-1,.42-1.42.66-8.15,4-15.9,9.24-23.71,14.31a14.83,14.83,0,0,0-6.43,9,50.24,50.24,0,0,0-1.34,5.34A130.52,130.52,0,0,0,89,62.11c.17,5.48,1.11,10.66,1.37,16.1.12,2.37-1,3.52-3.29,3.39a3.25,3.25,0,0,1-2.25-1.13,10.83,10.83,0,0,1-2.27-4.12,73.32,73.32,0,0,1-2.74-12c-1.43-10.15-1.55-20.59,2.33-31.85.1-.3.28-.63,0-.89a8.64,8.64,0,0,0-2,1.7A242.31,242.31,0,0,0,57.41,60.41c-7.3,9.88-11.11,20.31-11.75,31.11-.61,10.5,2.9,18.15,11.57,21.51,7.15,2.78,14.82,0,22.48-5.15a36.55,36.55,0,0,1,8.71-4.65c.61-.2,1.32-.64,1.9.07-.69.6-1.34,1.19-2,1.75Q79.1,112.76,69.4,119.5C60,126,50.44,132,40.23,135.6c-3.77,1.33-3.71,1.29-2.8,4.74.36,1.34,1,1.43,2.3.67,2.42-1.42,4.89-2.66,7.31-4.08,8-4.68,16.15-9.06,23.48-15.43a230.94,230.94,0,0,1,21.06-16c.42-.29.85-.79,1.36-.52a4.14,4.14,0,0,1-1.43,2.4c-1.4,1.56-2.87,3-4.31,4.56-4.65,4.93-9.23,9.92-12.4,16s-3,10.56.61,14.44c.64.68,1.3,1.31,2,1.92a28.11,28.11,0,0,0,4.94,3.57c9.32,5.26,19.9,6.83,32.16,3.31,8.58-2.46,16.53-7.58,24.4-12.9,1.2-.81,2.37-1.66,3.53-2.54a52.85,52.85,0,0,0,8-7.43c.5-.58,1.24-1.24,1.15-1.88s-1-.41-1.64-.4a72.38,72.38,0,0,1-11.39-.83c-7.31-1.12-14-3.31-19.1-8.29a12.78,12.78,0,0,1-4.3-8.31,3.71,3.71,0,0,1,1.17-3.41,2.75,2.75,0,0,1,3.05-.37,17.4,17.4,0,0,1,3.95,2.33c4.06,3,7.63,6.67,12.06,9.22,5.74,3.3,11.93,5.49,19.64,4.07a15.48,15.48,0,0,0,9.74-5.9c4.58-5.66,9-11.39,13.06-17.43a28.72,28.72,0,0,0,3.48-5.74c-.67.35-1.08.53-1.47.76-8.91,5.06-17.71,7.17-26.4,6.43-5.88-.51-11.38-2-17.18-2.71a8.57,8.57,0,0,1-2.73-1c-.55-.27-1.16-.64-1-1.56a2.72,2.72,0,0,1,1.77-1.84A14.79,14.79,0,0,1,144,90c9.4,2.19,19.4,2,29.84,0a21,21,0,0,0,11-6.29c4.08-4.17,5.88-9.33,8.44-14.17.57-1.07,0-1.4-.93-1.07a16,16,0,0,0-3.5,1.81c-9.52,6.31-19.06,9-28.61,8.34-3.75-.24-7.48-.55-10.75-2-.64-.29-1.27-.69-1-1.68a3.2,3.2,0,0,1,2-2.13,5.35,5.35,0,0,1,2.84-.44,40.46,40.46,0,0,1,4.45.72c10.35,2.49,21,.52,32.1-6.52a11.68,11.68,0,0,0,4.8-5.47,27.24,27.24,0,0,0,2.34-11.69c-.1-2.54-.3-5-.21-7.66a9.81,9.81,0,0,1,3.54-7.77c.62-.53,1.1-1.25,1.68-1.86C203.2,30.89,203.54,30.14,201.87,29.91Zm-12.69,8.78c-14.33,8.65-28.71,17.17-42.72,26.7-5.71,3.89-11.37,7.89-17,11.87-.92.64-2.29,1.33-2.35,2.37s1.38.73,2.2.9c5.43,1.2,10.89,2.34,16.34,3.51a.66.66,0,0,1,.58.63c-2.52-.3-5.05-.58-7.56-.9-4.4-.58-8.78-1.18-13.16-1.77a6.09,6.09,0,0,0-4.2,1.3c-3,2-5.91,4.1-8.8,6.29-2,1.48-2,1.77-.2,2.48,6.67,2.67,13.37,5.32,20,8,.09,0,.16.12.14.4-2.17-.67-4.34-1.36-6.52-2-5.31-1.61-10.55-3.35-16-4.57a5.68,5.68,0,0,0-5,1.18c-1.7,1.27-3.4,2.52-5.15,3.68a2.19,2.19,0,0,0-1.11,2.57,45.1,45.1,0,0,0,9.77,21.31,14,14,0,0,1,1.47,2c-5.94-5.16-8.77-12.91-12.37-20.12-1.45,11.57-2,22.82-.11,33.33a56.08,56.08,0,0,0,3.33,11.5,6.41,6.41,0,0,1-2.57-3.13,46.7,46.7,0,0,1-3.06-7.81c-2.65-9-2.74-19-.71-29.79a43.54,43.54,0,0,1,1.2-5.15,3.9,3.9,0,0,0-.8-4.23,11.33,11.33,0,0,0-3.57-2.59c-7.18-3.29-13.38-7.77-17.3-14.93a27.74,27.74,0,0,1-2.76-18.34c.49,2.35,1,4.67,1.45,7.05,1.86,10.62,7.62,17.65,16.25,22,1.8.91,3.6,1.83,5.44,2.69a4,4,0,0,1,1.86,1.67l.64-.06c1.43-3.67,1.36-7.19,1.66-10.73,1.26-15.11,1.37-30,2.82-45.13a45.14,45.14,0,0,1,1.39-9.25l0-.32.27.27c0,12.45-1,25.14-1.59,37.74-.42,8.68-1,17.41-1.5,26.11a4.34,4.34,0,0,0,.13.8,102.16,102.16,0,0,0,14.87-10.4,9,9,0,0,0,2.54-4.4A130.32,130.32,0,0,0,121.25,63,276,276,0,0,1,129,27.37c.21-.69.49-1.38.83-2.33.43.69.08,1.34-.05,1.89-3.54,15.52-6.92,31-9.59,46.51-.31,1.84-.57,3.68-.7,5.48-.15,2.17.5,2.58,2.54,1.37,3.45-2,6.84-4.26,10.24-6.42.57-.36,1.11-.81,1.66-1.2a10.55,10.55,0,0,0,4.72-7A132.66,132.66,0,0,1,144.17,45a41.25,41.25,0,0,1,2.47-5.76c.72.65.11,1.39-.12,2a158.07,158.07,0,0,0-6.07,20.17,34.27,34.27,0,0,0-.52,4c-.14,1.56.51,1.87,1.94.88,3.85-2.67,7.72-5.27,11.56-8,3.28-2.31,6.49-4.74,9.77-7a9.16,9.16,0,0,0,2.61-2.9c3.49-5.83,6.51-11.86,10.14-17.63a32.87,32.87,0,0,1,4.93-6.6,157.42,157.42,0,0,0-12.11,22.33c-.43,1-1.4,2.39-.89,2.88s1.68-.82,2.55-1.32c2.25-1.27,4.46-2.72,6.73-4A5.8,5.8,0,0,0,180,40.84a47.07,47.07,0,0,1,4.53-9A10.73,10.73,0,0,1,188.39,28c-1.6,2.48-3,4.59-4.31,6.74-.73,1.18-1.33,2.42-1.93,3.64-.23.47-.53,1.07-.13,1.4s.89-.12,1.32-.42c5.23-3.55,10.77-5.46,16.27-7.54.22-.08.48-.22.7.2C196.58,34.23,192.88,36.45,189.18,38.69Z"/><path class="cls-3" d="M153.8,0c.38,0,.26.2,0,.43C153.81.29,153.8.14,153.8,0Z"/><path class="cls-4" d="M102.69,31.66l0-.32.27.27Z"/></svg>